<svg width="556" height="137" viewBox="0 0 556 137" fill="none" xmlns="http://www.w3.org/2000/svg">
<path d="M50 0.799989C85.2 3.59999 113 32.4 113 68.4C113 105.8 83.2 135.8 46.2 136.8V137H5.96046e-07V0.599992H44.2C46.2 0.599992 48 0.599992 50 0.799989ZM27.2 109.8H44.2C67.2 109.8 85.8 91.4 85.8 68.4C85.8 45.4 67.2 27.6 44.2 27.6H27.2V109.8ZM281.948 0.399994L338.948 137H309.548L281.948 71L254.548 137H225.148L281.948 0.399994ZM548.772 0.399994V27.6H487.172C482.772 27.6 480.172 31.2 480.172 34.8C480.172 37 481.172 39.4 483.772 40.8L537.172 70.8C548.372 77 555.372 88.8 555.372 101.6C555.372 121 539.372 136.8 519.972 136.8H451.172V109.8H516.572C522.172 109.8 525.572 105.2 525.572 100.6C525.572 97.6 524.172 94.6 520.972 92.8L468.372 63.4C457.772 57.4 451.172 46.2 451.172 34C451.172 15.4 466.172 0.399994 484.772 0.399994H548.772Z" fill="white"/>
</svg>
