<svg width="1113" height="1286" viewBox="0 0 1113 1286" fill="none" xmlns="http://www.w3.org/2000/svg">
<mask id="mask0_18_27" style="mask-type:alpha" maskUnits="userSpaceOnUse" x="0" y="0" width="1113" height="1286">
<rect width="1113" height="1286" fill="#D9D9D9"/>
</mask>
<g mask="url(#mask0_18_27)">
<path d="M572.833 1.87988L1099.14 310.25L1034.44 348.512L572.54 77.8773L572.833 1.87988Z" fill="#01C38D"/>
<path d="M1111.79 338.939L1111.8 952.476L1046.8 914.737L1046.8 376.678L1111.79 338.939Z" fill="#01C38D"/>
<path d="M1094.41 978.363L572.813 1283.97L572.518 1207.97L1029.7 940.104L1094.41 978.363Z" fill="#01C38D"/>
<path d="M19.6982 978.802L542.039 1284.85L542.331 1208.86L84.4026 940.548L19.6982 978.802Z" fill="#01C38D"/>
<path d="M1.53809 338.059L1.54338 953.36L66.5458 915.613L66.5458 375.798L1.53809 338.059Z" fill="#01C38D"/>
<path d="M542.003 1L14.9448 309.81L79.6479 348.065L542.3 76.9895L542.003 1Z" fill="#01C38D"/>
<path fill-rule="evenodd" clip-rule="evenodd" d="M533.746 674.391L124.527 438.34L124.48 909.738L195.316 949.559L195.378 757.441L462.824 911.562L462.66 1102.24L533.492 1142.07L533.746 674.391ZM462.66 826.035L462.902 715.535L195.378 563.535L195.316 674.391L462.66 826.035Z" fill="white"/>
<path fill-rule="evenodd" clip-rule="evenodd" d="M559.523 152.703L150.476 389.062L488.902 583.535C488.902 583.535 519.142 602.066 559.522 602.066C599.902 602.066 630.222 583.531 630.222 583.531L899.921 427.445C899.921 427.445 927.957 415.066 927.957 389.051C927.957 363.035 899.804 348.094 899.804 348.094L559.523 152.703ZM292.929 389.031L559.406 234.891L825.464 388.855L559.121 542.355L292.929 389.031Z" fill="white"/>
<path d="M582.414 674.395L991.636 438.328L991.48 572.555L920.476 615.562V561.613L653.957 715.199V831.555L922.265 676.535C922.265 676.535 956.183 656.246 975.292 670.641C994.402 685.035 991.519 715.548 991.519 715.548L991.39 906.75L582.992 1142.1L582.64 1014.57L653.644 971.555L653.652 1019.3L920.503 865.355L920.48 759.516L652.524 913.543C652.524 913.543 624.402 928.535 603.902 919.535C583.402 910.535 582.931 877.494 582.931 877.494L582.414 674.395Z" fill="white"/>
</g>
</svg>
