<svg width="1046" height="70" viewBox="0 0 1046 70" fill="none" xmlns="http://www.w3.org/2000/svg">
<path d="M25.584 0.899995C43.184 2.29999 57.084 16.7 57.084 34.7C57.084 53.4 42.184 68.4 23.684 68.9V69H0.583985V0.799996H22.684C23.684 0.799996 24.584 0.799996 25.584 0.899995ZM14.184 55.4H22.684C34.184 55.4 43.484 46.2 43.484 34.7C43.484 23.2 34.184 14.3 22.684 14.3H14.184V55.4ZM78.1488 69H64.5488V0.799996H78.1488V69ZM120.043 24.9H150.343V51C147.243 56.8 142.443 61.6 136.743 64.8C131.843 67.5 126.143 69.1 120.043 69.1C101.143 69.1 85.6426 53.7 85.6426 34.7C85.6426 15.8 101.143 0.299996 120.043 0.299996C129.143 0.299996 137.443 3.9 143.543 9.6L132.643 18.2C129.143 15.5 124.743 13.9 120.043 13.9C108.543 13.9 99.2426 23.2 99.2426 34.7C99.2426 46.2 108.543 55.5 120.043 55.5C126.843 55.5 132.943 52.2 136.743 47.1V38.5H120.043V24.9ZM171.411 69H157.811V0.799996H171.411V69ZM228.304 0.799996V14.3H210.404V69H196.804V14.3H178.904V0.799996H228.304ZM250.25 0.699997L278.75 69H264.05L250.25 36L236.55 69H221.85L250.25 0.699997ZM284.275 69V0.799996H297.875V55.4H324.175V69H284.275ZM383.843 0.699997L412.343 69H397.643L383.843 36L370.143 69H355.443L383.843 0.699997ZM465.693 0.699997V14.3H434.893C432.693 14.3 431.393 16.1 431.393 17.9C431.393 19 431.893 20.2 433.193 20.9L459.893 35.9C465.493 39 468.993 44.9 468.993 51.3C468.993 61 460.993 68.9 451.293 68.9H416.893V55.4H449.593C452.393 55.4 454.093 53.1 454.093 50.8C454.093 49.3 453.393 47.8 451.793 46.9L425.493 32.2C420.193 29.2 416.893 23.6 416.893 17.5C416.893 8.2 424.393 0.699997 433.693 0.699997H465.693ZM521.259 0.699997V14.3H490.459C488.259 14.3 486.959 16.1 486.959 17.9C486.959 19 487.459 20.2 488.759 20.9L515.459 35.9C521.059 39 524.559 44.9 524.559 51.3C524.559 61 516.559 68.9 506.859 68.9H472.459V55.4H505.159C507.959 55.4 509.659 53.1 509.659 50.8C509.659 49.3 508.959 47.8 507.359 46.9L481.059 32.2C475.759 29.2 472.459 23.6 472.459 17.5C472.459 8.2 479.959 0.699997 489.259 0.699997H521.259ZM532.029 0.699997H576.629V14.3H532.029V0.699997ZM532.029 24.8H576.629V38.4H545.629V55.4H576.629V69H532.029V24.8ZM633.578 0.799996V14.3H615.678V69H602.078V14.3H584.178V0.799996H633.578ZM714.716 0.699997V14.3H683.916C681.716 14.3 680.416 16.1 680.416 17.9C680.416 19 680.916 20.2 682.216 20.9L708.916 35.9C714.516 39 718.016 44.9 718.016 51.3C718.016 61 710.016 68.9 700.316 68.9H665.916V55.4H698.616C701.416 55.4 703.116 53.1 703.116 50.8C703.116 49.3 702.416 47.8 700.816 46.9L674.516 32.2C669.216 29.2 665.916 23.6 665.916 17.5C665.916 8.2 673.416 0.699997 682.716 0.699997H714.716ZM770.882 0.799996V14.3H752.982V69H739.382V14.3H721.482V0.799996H770.882ZM815.451 0.699997H829.051V42.9C829.051 57.3 817.451 68.9 803.051 68.9C788.651 68.9 776.951 57.3 776.951 42.9V0.699997H790.551V42.9C790.551 49.8 796.151 55.3 803.051 55.3C809.951 55.3 815.451 49.8 815.451 42.9V0.699997ZM861.521 0.899995C879.121 2.29999 893.021 16.7 893.021 34.7C893.021 53.4 878.121 68.4 859.621 68.9V69H836.521V0.799996H858.621C859.621 0.799996 860.521 0.799996 861.521 0.899995ZM850.121 55.4H858.621C870.121 55.4 879.421 46.2 879.421 34.7C879.421 23.2 870.121 14.3 858.621 14.3H850.121V55.4ZM914.086 69H900.486V0.799996H914.086V69ZM955.98 69.3C936.98 69.3 921.58 53.9 921.58 34.9C921.58 16 936.98 0.499994 955.98 0.499994C974.98 0.499994 990.38 16 990.38 34.9C990.38 53.9 974.98 69.3 955.98 69.3ZM955.98 14.1C944.48 14.1 935.18 23.4 935.18 34.9C935.18 46.4 944.48 55.7 955.98 55.7C967.48 55.7 976.78 46.4 976.78 34.9C976.78 23.4 967.48 14.1 955.98 14.1ZM1042.65 0.699997V14.3H1011.85C1009.65 14.3 1008.35 16.1 1008.35 17.9C1008.35 19 1008.85 20.2 1010.15 20.9L1036.85 35.9C1042.45 39 1045.95 44.9 1045.95 51.3C1045.95 61 1037.95 68.9 1028.25 68.9H993.846V55.4H1026.55C1029.35 55.4 1031.05 53.1 1031.05 50.8C1031.05 49.3 1030.35 47.8 1028.75 46.9L1002.45 32.2C997.146 29.2 993.846 23.6 993.846 17.5C993.846 8.2 1001.35 0.699997 1010.65 0.699997H1042.65Z" fill="white"/>
</svg>
