<svg width="733" height="733" viewBox="0 0 733 733" fill="none" xmlns="http://www.w3.org/2000/svg">
<rect x="20" y="20" width="693" height="693" rx="30" stroke="#01C38D" stroke-width="40"/>
<path d="M244.166 271.455H146.065C141.711 271.455 138.184 274.985 138.184 279.337V594.492C138.184 598.846 141.711 602.374 146.065 602.374H244.166C248.52 602.374 252.048 598.846 252.048 594.492V279.337C252.048 274.985 248.52 271.455 244.166 271.455Z" fill="#F5F8FF"/>
<path d="M195.156 114.786C159.461 114.786 130.422 143.794 130.422 179.449C130.422 215.12 159.461 244.139 195.156 244.139C230.822 244.139 259.838 215.119 259.838 179.449C259.84 143.794 230.822 114.786 195.156 114.786Z" fill="#F5F8FF"/>
<path d="M493.733 263.629C454.332 263.629 425.206 280.567 407.54 299.812V279.343C407.54 274.991 404.012 271.462 399.658 271.462H305.71C301.356 271.462 297.828 274.991 297.828 279.343V594.499C297.828 598.853 301.356 602.38 305.71 602.38H403.596C407.95 602.38 411.478 598.853 411.478 594.499V438.57C411.478 386.026 425.75 365.555 462.378 365.555C502.269 365.555 505.439 398.372 505.439 441.273V594.5C505.439 598.854 508.967 602.382 513.321 602.382H611.243C615.597 602.382 619.125 598.854 619.125 594.5V421.632C619.125 343.501 604.227 263.629 493.733 263.629Z" fill="#F5F8FF"/>
</svg>
