<svg width="401" height="592" viewBox="0 0 401 592" fill="none" xmlns="http://www.w3.org/2000/svg">
<path d="M400.5 200.545C400.5 311.002 271.256 386.87 200.5 591.106C130.484 386.87 0.5 311.002 0.5 200.545C0.5 90.0878 90.0431 0.544739 200.5 0.544739C310.957 0.544739 400.5 90.0878 400.5 200.545Z" fill="#01C38D"/>
<path d="M383 200.545C383 249.178 354.745 291.054 312.737 350.566C312.051 351.539 311.362 352.514 310.67 353.494C275.861 402.793 234.199 461.799 200.569 541.961C167.044 461.51 125.195 402.367 90.2348 352.96C89.6648 352.155 89.0966 351.352 88.5303 350.551C46.4056 291.008 18 249.155 18 200.545C18 99.7528 99.708 18.0447 200.5 18.0447C301.292 18.0447 383 99.7528 383 200.545Z" stroke="black" stroke-width="35"/>
<circle cx="200.5" cy="187.338" r="100" fill="white"/>
<circle cx="200.5" cy="187.338" r="82.5" stroke="black" stroke-width="35"/>
</svg>
