<svg width="1370" height="1563" viewBox="0 0 1370 1563" fill="none" xmlns="http://www.w3.org/2000/svg">
<mask id="mask0_184_46" style="mask-type:alpha" maskUnits="userSpaceOnUse" x="0" y="0" width="1370" height="1563">
<path d="M710.53 781.75L1369.03 405L1369.03 1158.5L710.53 781.75Z" fill="#D9D9D9"/>
<path d="M658.5 781.75L-8.9854e-06 405L0 1158.5L658.5 781.75Z" fill="#D9D9D9"/>
<path d="M697.522 759.221L700.497 0.567824L1353.05 377.318L697.522 759.221Z" fill="#D9D9D9"/>
<path d="M671.508 804.279L15.9827 1186.18L668.533 1562.93L671.508 804.279Z" fill="#D9D9D9"/>
<path d="M671.508 759.221L668.533 0.567824L15.9827 377.318L671.508 759.221Z" fill="#D9D9D9"/>
<path d="M697.522 804.279L1353.05 1186.18L700.497 1562.93L697.522 804.279Z" fill="#D9D9D9"/>
</mask>
<g mask="url(#mask0_184_46)">
<path d="M161.138 477.264L683.76 175.528L1206.38 477.264V1080.74L683.76 1382.47L161.138 1080.74V477.264Z" stroke="#01C38D" stroke-width="65"/>
</g>
<path d="M686.617 277.171L757.077 318.529L349.077 554.529L277.577 513.529L686.617 277.171Z" fill="black"/>
<path d="M689.199 278.79L625.662 324.145L952.774 513.444L1025.08 471.529L689.199 278.79Z" fill="black"/>
<path d="M418.229 512.462L347.022 553.342L616.577 708.029L686.577 667.029L418.229 512.462Z" fill="black"/>
<path d="M660.84 798.858L660.254 880.557L251.871 645.219L251.629 562.798L660.84 798.858Z" fill="black"/>
<path d="M322.577 619.816L251.957 581.029L251.577 1034.2L322.406 1074.03L322.577 619.816Z" fill="black"/>
<path d="M660.757 812.316L590.137 773.529L589.757 1226.7L660.586 1266.53L660.757 812.316Z" fill="black"/>
<path d="M709.514 798.858L710.101 880.557L1118.48 645.219L1118.73 562.798L709.514 798.858Z" fill="black"/>
<path d="M615.577 707.529C615.577 707.529 645.577 726.529 686.827 726.529C728.077 726.529 758.077 707.529 758.077 707.529L1025.08 553.029C1025.08 553.029 1055.08 537.029 1055.08 512.279C1055.08 487.529 1025.08 471.529 1025.08 471.529L615.577 707.529Z" fill="black"/>
<path d="M709.514 1184.86L710.101 1266.56L1118.48 1031.22L1118.73 948.798L709.514 1184.86Z" fill="black"/>
<path d="M710.077 997.029C710.077 997.029 708.077 1024.03 725.077 1040.03C742.077 1056.03 779.575 1038.03 779.575 1038.03L1118.48 843.221C1118.48 843.221 1121.58 805.53 1100.58 794.03C1079.58 782.53 1047.58 802.03 1047.58 802.03L710.077 997.029Z" fill="black"/>
<path d="M660.84 994.858L660.254 1076.56L251.871 841.219L251.629 758.798L660.84 994.858Z" fill="black"/>
<path d="M1047.58 620.029H1118.58V697.029L1047.58 740.029V620.029Z" fill="black"/>
<path d="M780.737 1216.03H709.737V1139.03L780.737 1096.03V1216.03Z" fill="black"/>
<path d="M781.057 1005.03L710.077 1001.53L710.057 869.029L781.057 826.029V1005.03Z" fill="black"/>
<path d="M1118.58 1009.03L1047.6 1005.53L1047.58 873.029L1118.58 835.029V1009.03Z" fill="black"/>
</svg>
